<?xml version="1.0" encoding="UTF-8"?>
<svg id="Layer_2" data-name="Layer 2" xmlns="http://www.w3.org/2000/svg" viewBox="0 0 597.42 64.48">
  <defs>
    <style>
      .cls-1 {
        fill: #212529;
      }
    </style>
  </defs>
  <g id="darkgray-logo">
    <g id="Layer_10" data-name="Layer 10">
      <g>
        <path class="cls-1" d="M108.83,30.24h24.77c0,9.5-1.94,16.27-7.7,21.6-5.04,4.68-10.8,6.05-16.92,6.05-8.64,0-14.55-3.17-18.43-7.13-3.6-3.6-6.91-9.43-6.91-17.35s3.02-13.9,7.2-18c3.96-3.96,10.15-7.06,18.65-7.06,4.46,0,9.29,1.01,12.96,3.24,3.74,2.3,6.84,6.12,8.57,9.87l-11.88,4.9c-.86-2.23-2.23-3.82-3.46-4.82-2.09-1.73-4.32-2.38-6.7-2.38-2.95,0-5.98,1.08-8.21,3.31-2.81,2.81-4.18,7.27-4.18,11.02,0,4.39,1.58,7.99,3.82,10.37,2.3,2.45,5.11,3.67,8.78,3.67,2.16,0,4.68-.36,6.91-2.23,1.15-.94,2.52-2.66,2.95-5.33h-10.22v-9.72Z"/>
        <path class="cls-1" d="M168.09,20.01h-14.83v7.99h14.04v10.58h-14.04v8.28h14.83v10.58h-27.29V9.43h27.29v10.58Z"/>
        <path class="cls-1" d="M218.56,51.41c-4.9,4.68-11.81,7.13-18.94,7.13s-14.04-2.45-18.94-7.13c-5.11-4.9-7.56-11.59-7.56-17.93s2.45-13.18,7.56-18c4.9-4.68,11.81-7.13,18.94-7.13s14.04,2.45,18.94,7.13c5.11,4.82,7.56,11.59,7.56,18s-2.45,13.03-7.56,17.93ZM189.9,24.26c-2.59,2.52-3.82,6.05-3.82,9.43,0,4.25,2.02,7.2,3.82,8.93,2.3,2.23,5.54,3.82,9.72,3.82s7.42-1.51,9.65-3.75c2.23-2.23,3.89-5.54,3.89-9.22s-1.66-7.06-3.89-9.22c-2.66-2.52-6.34-3.82-9.65-3.82s-7.13,1.22-9.72,3.82Z"/>
        <path class="cls-1" d="M255.93,18.93c-.65-1.3-1.73-2.74-2.81-3.6-.94-.72-2.66-1.66-5.4-1.66-4.75,0-8.06,2.95-8.06,7.42,0,1.87.5,2.95,1.8,4.18,1.44,1.44,3.24,2.23,5.04,3.02l4.61,2.02c2.81,1.22,5.4,2.52,7.42,4.54,2.45,2.45,3.46,5.26,3.46,8.71,0,8.86-6.55,14.76-15.19,14.76-3.17,0-7.13-.65-10.44-3.89-2.38-2.3-3.82-5.62-4.46-8.5l5.18-1.44c.36,2.52,1.51,4.68,2.88,6.12,2.09,2.09,4.46,2.66,6.91,2.66,6.55,0,9.65-4.68,9.65-9.5,0-2.16-.65-4.03-2.38-5.62-1.37-1.3-3.24-2.16-5.76-3.31l-4.32-2.02c-1.87-.86-4.25-1.87-6.41-3.96-2.09-2.02-3.31-4.25-3.31-7.85,0-7.42,5.69-12.38,13.47-12.38,2.95,0,5.33.58,7.7,2.16,1.94,1.3,3.6,3.24,4.68,5.33l-4.25,2.81Z"/>
        <path class="cls-1" d="M282.28,9.43c4.82,0,8.86.58,12.1,3.38,3.53,3.02,4.39,7.27,4.39,10.3,0,6.77-4.25,13.46-15.19,13.46h-4.68v20.88h-5.33V9.43h8.71ZM278.89,31.54h4.39c6.34,0,10.15-3.17,10.15-8.71,0-7.63-7.13-8.35-10.58-8.35h-3.96v17.07Z"/>
        <path class="cls-1" d="M333.11,14.47h-19.59v14.26h19.01v5.04h-19.01v18.65h19.59v5.04h-24.91V9.43h24.91v5.04Z"/>
        <path class="cls-1" d="M381.42,20.01c-1.51-1.51-3.82-3.31-6.26-4.46-2.52-1.15-5.47-1.87-8.28-1.87-11.09,0-19.3,8.93-19.3,20.02,0,13.03,10.58,19.58,19.37,19.58,3.24,0,6.41-.94,8.93-2.23,2.74-1.37,4.68-3.17,5.54-4.03v6.62c-5.33,3.82-10.87,4.68-14.47,4.68-14.26,0-24.84-10.8-24.84-24.7s10.73-24.99,25.13-24.99c2.88,0,8.42.36,14.19,4.75v6.62Z"/>
        <path class="cls-1" d="M398.34,9.43v48.03h-5.33V9.43h5.33Z"/>
        <path class="cls-1" d="M410.87,57.46l7.99-50.69,18.43,40.54,18.79-40.61,7.49,50.76h-5.47l-4.54-33.41-16.35,35.43-16.13-35.43-4.75,33.41h-5.47Z"/>
        <path class="cls-1" d="M501.37,14.47h-19.59v14.26h19.01v5.04h-19.01v18.65h19.59v5.04h-24.91V9.43h24.91v5.04Z"/>
        <path class="cls-1" d="M512.96,57.46V7.41l37.44,39.24V9.43h5.33v50.19l-37.44-39.24v37.08h-5.33Z"/>
        <path class="cls-1" d="M591.37,18.93c-.65-1.3-1.73-2.74-2.81-3.6-.94-.72-2.66-1.66-5.4-1.66-4.75,0-8.06,2.95-8.06,7.42,0,1.87.5,2.95,1.8,4.18,1.44,1.44,3.24,2.23,5.04,3.02l4.61,2.02c2.81,1.22,5.4,2.52,7.42,4.54,2.45,2.45,3.46,5.26,3.46,8.71,0,8.86-6.55,14.76-15.19,14.76-3.17,0-7.13-.65-10.44-3.89-2.38-2.3-3.82-5.62-4.46-8.5l5.18-1.44c.36,2.52,1.51,4.68,2.88,6.12,2.09,2.09,4.46,2.66,6.91,2.66,6.55,0,9.65-4.68,9.65-9.5,0-2.16-.65-4.03-2.38-5.62-1.37-1.3-3.24-2.16-5.76-3.31l-4.32-2.02c-1.87-.86-4.25-1.87-6.41-3.96-2.09-2.02-3.31-4.25-3.31-7.85,0-7.42,5.69-12.38,13.47-12.38,2.95,0,5.33.58,7.7,2.16,1.94,1.3,3.6,3.24,4.68,5.33l-4.25,2.81Z"/>
      </g>
    </g>
    <g id="logo">
      <path class="cls-1" d="M5.03,14.96C1.02,21.28-.67,28.79.24,36.21c.92,7.42,4.39,14.29,9.82,19.44,5.43,5.14,12.48,8.24,19.94,8.75,7.46.52,14.87-1.58,20.95-5.93-11.81-.64-22.98-5.56-31.42-13.85-8.15-7.89-13.28-18.38-14.51-29.65h0Z"/>
      <path class="cls-1" d="M55.06,9.43C49.07,3.45,40.97.06,32.51,0,24.04-.06,15.89,3.2,9.81,9.09l12.24,7.8c3.47-2.89,7.89-4.39,12.4-4.2,4.51.19,8.79,2.06,12,5.23,3.21,3.18,5.12,7.44,5.35,11.94.24,4.51-1.22,8.94-4.08,12.44l8.86,11.06h0c5.34-6.16,8.16-14.12,7.88-22.27-.28-8.15-3.64-15.89-9.4-21.67h0Z"/>
      <path class="cls-1" d="M44.5,39.88c2.26-2.71,3.43-6.16,3.27-9.68-.16-3.52-1.63-6.86-4.12-9.35-2.49-2.49-5.83-3.96-9.35-4.12-3.52-.16-6.98,1.01-9.68,3.27,1.72,4.53,4.38,8.65,7.81,12.08,3.43,3.43,7.54,6.09,12.08,7.81h0Z"/>
      <path class="cls-1" d="M20.6,20.74l-11.68-7.44c.89,10.79,5.65,20.89,13.42,28.43,8.03,7.87,18.73,12.43,29.97,12.76l-8.46-10.59h0c-5.35-1.9-10.22-4.96-14.24-8.97-4.02-4.01-7.1-8.86-9.02-14.2h0Z"/>
    </g>
  </g>
</svg>